<svg id="Layer_1" data-name="Layer 1" xmlns="http://www.w3.org/2000/svg" viewBox="0 0 1000 1000"><defs><style>.cls-1{fill:none;}.cls-1,.cls-2,.cls-3,.cls-4,.cls-5{stroke:#000;stroke-miterlimit:10;}.cls-2{fill:#9c50ff;}.cls-3{fill:#262699;}.cls-4{fill:#7c00ff;}.cls-5{fill:#5a00ce;}</style></defs><polyline class="cls-1" points="77.91 688.95 77.91 688.15 77.91 685.74"/><polyline class="cls-1" points="77.91 628.02 77.91 627.23 77.91 624.83"/><polyline class="cls-1" points="77.91 567.1 77.91 566.3 77.91 563.9"/><polyline class="cls-1" points="77.91 506.17 77.91 505.39 77.91 502.98"/><polyline class="cls-1" points="77.91 445.24 77.91 444.47 77.91 442.05"/><polyline class="cls-1" points="77.91 384.31 77.91 383.54 77.91 381.12"/><polyline class="cls-1" points="77.91 323.41 77.91 322.61 77.91 320.19"/><line class="cls-1" x1="236.21" y1="232.02" x2="236.21" y2="231.22"/><line class="cls-1" x1="236.21" y1="414.78" x2="236.21" y2="414"/><line class="cls-1" x1="288.97" y1="201.56" x2="288.97" y2="200.76"/><line class="cls-1" x1="341.73" y1="171.09" x2="341.73" y2="170.29"/><line class="cls-1" x1="341.73" y1="597.56" x2="341.73" y2="596.76"/><line class="cls-1" x1="394.49" y1="140.63" x2="394.49" y2="139.83"/><line class="cls-1" x1="447.25" y1="110.16" x2="447.25" y2="109.37"/><line class="cls-1" x1="500.01" y1="79.7" x2="500.01" y2="78.9"/><line class="cls-1" x1="552.77" y1="414.78" x2="552.77" y2="414"/><line class="cls-1" x1="552.77" y1="597.54" x2="552.77" y2="596.76"/><line class="cls-1" x1="552.77" y1="902.17" x2="552.77" y2="901.38"/><line class="cls-1" x1="552.77" y1="475.71" x2="552.77" y2="474.93"/><line class="cls-1" x1="552.77" y1="536.63" x2="552.77" y2="535.86"/><line class="cls-1" x1="605.53" y1="871.71" x2="605.53" y2="870.91"/><line class="cls-1" x1="605.53" y1="567.1" x2="605.53" y2="566.3"/><line class="cls-1" x1="605.53" y1="445.24" x2="605.53" y2="444.47"/><line class="cls-1" x1="605.53" y1="506.17" x2="605.53" y2="505.4"/><line class="cls-1" x1="658.29" y1="353.85" x2="658.29" y2="353.08"/><line class="cls-1" x1="658.29" y1="841.25" x2="658.29" y2="840.45"/><line class="cls-1" x1="658.29" y1="780.32" x2="658.29" y2="779.52"/><line class="cls-1" x1="658.29" y1="414.78" x2="658.29" y2="414"/><line class="cls-1" x1="658.29" y1="475.71" x2="658.29" y2="474.93"/><line class="cls-1" x1="711.05" y1="323.39" x2="711.05" y2="322.61"/><line class="cls-1" x1="711.05" y1="749.86" x2="711.05" y2="749.08"/><line class="cls-1" x1="711.05" y1="810.78" x2="711.05" y2="810.01"/><polygon class="cls-2" points="763.81 475.71 763.81 657.69 713.12 686.96 711.05 685.76 711.05 688.15 660.36 717.42 658.29 716.22 658.29 658.49 661.06 656.89 660.38 656.49 658.29 655.3 658.29 597.56 661.06 595.97 660.38 595.57 658.29 594.37 658.29 536.63 661.06 535.04 711.05 506.17 713.82 504.57 763.81 475.71"/><line class="cls-1" x1="711.05" y1="506.17" x2="711.05" y2="505.37"/><line class="cls-1" x1="711.05" y1="688.93" x2="711.05" y2="688.15"/><line class="cls-1" x1="711.05" y1="384.31" x2="711.05" y2="383.54"/><line class="cls-1" x1="711.05" y1="445.24" x2="711.05" y2="444.47"/><line class="cls-1" x1="763.81" y1="292.95" x2="763.81" y2="292.15"/><line class="cls-1" x1="763.81" y1="719.39" x2="763.81" y2="718.62"/><line class="cls-1" x1="763.81" y1="780.32" x2="763.81" y2="779.55"/><line class="cls-1" x1="763.81" y1="658.46" x2="763.81" y2="657.69"/><line class="cls-1" x1="763.81" y1="475.71" x2="763.81" y2="474.93"/><line class="cls-1" x1="763.81" y1="353.85" x2="763.81" y2="353.08"/><line class="cls-1" x1="763.81" y1="414.78" x2="763.81" y2="414"/><line class="cls-1" x1="816.57" y1="262.48" x2="816.57" y2="261.69"/><line class="cls-1" x1="816.57" y1="749.86" x2="816.57" y2="749.08"/><line class="cls-1" x1="816.57" y1="323.41" x2="816.57" y2="322.61"/><line class="cls-1" x1="869.33" y1="719.39" x2="869.33" y2="718.62"/><line class="cls-1" x1="869.33" y1="292.95" x2="869.33" y2="292.15"/><line class="cls-1" x1="818.66" y1="808.81" x2="816.57" y2="810.01"/><line class="cls-1" x1="765.9" y1="839.25" x2="763.81" y2="840.47"/><line class="cls-1" x1="713.14" y1="869.72" x2="711.05" y2="870.91"/><line class="cls-1" x1="660.38" y1="900.18" x2="658.29" y2="901.38"/><line class="cls-1" x1="607.62" y1="930.64" x2="605.53" y2="931.84"/><line class="cls-1" x1="554.86" y1="961.11" x2="552.77" y2="962.3"/><line class="cls-1" x1="871.42" y1="717.42" x2="869.33" y2="718.62"/><line class="cls-1" x1="818.66" y1="747.88" x2="816.57" y2="749.08"/><line class="cls-1" x1="765.9" y1="778.35" x2="763.81" y2="779.55"/><line class="cls-1" x1="713.14" y1="808.79" x2="711.05" y2="810.01"/><line class="cls-1" x1="660.38" y1="839.25" x2="658.29" y2="840.45"/><line class="cls-1" x1="607.62" y1="869.72" x2="605.53" y2="870.91"/><line class="cls-1" x1="554.86" y1="900.18" x2="552.77" y2="901.38"/><line class="cls-1" x1="502.1" y1="930.64" x2="500.01" y2="931.84"/><line class="cls-1" x1="660.38" y1="778.33" x2="658.29" y2="779.52"/><line class="cls-1" x1="449.34" y1="900.18" x2="447.25" y2="901.38"/><line class="cls-1" x1="607.62" y1="808.79" x2="605.53" y2="809.99"/><line class="cls-1" x1="502.08" y1="869.72" x2="500.01" y2="870.91"/><line class="cls-1" x1="713.12" y1="747.88" x2="711.05" y2="749.08"/><line class="cls-1" x1="871.42" y1="656.49" x2="869.33" y2="657.69"/><line class="cls-1" x1="502.08" y1="808.79" x2="500.01" y2="809.99"/><line class="cls-1" x1="607.62" y1="747.86" x2="605.53" y2="749.06"/><line class="cls-1" x1="396.56" y1="869.72" x2="394.49" y2="870.91"/><line class="cls-1" x1="765.9" y1="656.49" x2="763.81" y2="657.69"/><line class="cls-1" x1="713.12" y1="686.96" x2="711.05" y2="688.15"/><line class="cls-1" x1="660.36" y1="717.42" x2="658.29" y2="718.62"/><line class="cls-1" x1="871.42" y1="595.57" x2="869.33" y2="596.76"/><line class="cls-1" x1="818.66" y1="626.03" x2="816.57" y2="627.23"/><line class="cls-1" x1="502.1" y1="747.86" x2="500.01" y2="749.08"/><line class="cls-1" x1="607.62" y1="686.96" x2="605.53" y2="688.15"/><line class="cls-1" x1="396.56" y1="808.79" x2="394.49" y2="809.99"/><line class="cls-1" x1="343.82" y1="839.25" x2="341.73" y2="840.45"/><line class="cls-1" x1="765.9" y1="595.57" x2="763.81" y2="596.76"/><line class="cls-1" x1="660.38" y1="656.49" x2="658.29" y2="657.69"/><line class="cls-1" x1="871.42" y1="534.64" x2="869.33" y2="535.86"/><line class="cls-1" x1="818.66" y1="565.1" x2="816.57" y2="566.32"/><line class="cls-1" x1="343.8" y1="778.33" x2="341.73" y2="779.52"/><line class="cls-1" x1="291.04" y1="808.79" x2="288.97" y2="809.99"/><line class="cls-1" x1="818.66" y1="504.17" x2="816.57" y2="505.4"/><line class="cls-1" x1="871.42" y1="473.71" x2="869.33" y2="474.93"/><line class="cls-1" x1="660.38" y1="595.57" x2="658.29" y2="596.76"/><line class="cls-1" x1="765.9" y1="534.64" x2="763.81" y2="535.84"/><line class="cls-1" x1="396.56" y1="747.86" x2="394.49" y2="749.06"/><line class="cls-1" x1="607.62" y1="626.03" x2="605.53" y2="627.23"/><line class="cls-1" x1="502.1" y1="686.96" x2="500.01" y2="688.15"/><line class="cls-1" x1="291.04" y1="747.86" x2="288.97" y2="749.06"/><line class="cls-1" x1="238.28" y1="778.33" x2="236.21" y2="779.52"/><line class="cls-1" x1="818.66" y1="443.25" x2="816.57" y2="444.47"/><line class="cls-1" x1="871.42" y1="412.78" x2="869.33" y2="414"/><line class="cls-1" x1="765.9" y1="473.71" x2="763.81" y2="474.93"/><line class="cls-1" x1="713.14" y1="504.17" x2="711.05" y2="505.37"/><line class="cls-1" x1="660.38" y1="534.64" x2="658.29" y2="535.84"/><line class="cls-1" x1="607.62" y1="565.1" x2="605.53" y2="566.3"/><line class="cls-1" x1="554.84" y1="595.57" x2="552.77" y2="596.76"/><line class="cls-1" x1="396.56" y1="686.96" x2="394.49" y2="688.15"/><line class="cls-1" x1="502.08" y1="626.03" x2="500.01" y2="627.23"/><line class="cls-1" x1="238.28" y1="717.42" x2="236.21" y2="718.62"/><line class="cls-1" x1="185.54" y1="747.88" x2="183.43" y2="749.08"/><line class="cls-1" x1="343.82" y1="656.49" x2="341.73" y2="657.69"/><line class="cls-1" x1="291.06" y1="686.96" x2="288.97" y2="688.15"/><line class="cls-1" x1="502.1" y1="565.1" x2="500.01" y2="566.3"/><line class="cls-1" x1="554.86" y1="534.64" x2="552.77" y2="535.86"/><line class="cls-1" x1="607.62" y1="504.17" x2="605.53" y2="505.4"/><line class="cls-1" x1="660.38" y1="473.71" x2="658.29" y2="474.93"/><line class="cls-1" x1="713.14" y1="443.27" x2="711.05" y2="444.47"/><line class="cls-1" x1="765.9" y1="412.81" x2="763.81" y2="414"/><line class="cls-1" x1="818.66" y1="382.34" x2="816.57" y2="383.54"/><line class="cls-1" x1="871.42" y1="351.88" x2="869.33" y2="353.08"/><line class="cls-1" x1="396.58" y1="626.03" x2="394.49" y2="627.23"/><line class="cls-1" x1="449.34" y1="595.57" x2="447.25" y2="596.76"/><line class="cls-1" x1="502.1" y1="504.17" x2="500.01" y2="505.37"/><line class="cls-1" x1="449.34" y1="534.64" x2="447.25" y2="535.84"/><line class="cls-1" x1="238.28" y1="656.49" x2="236.21" y2="657.69"/><line class="cls-1" x1="291.06" y1="626.03" x2="288.97" y2="627.23"/><line class="cls-1" x1="343.82" y1="595.57" x2="341.73" y2="596.76"/><line class="cls-1" x1="396.56" y1="565.1" x2="394.49" y2="566.3"/><line class="cls-1" x1="132.78" y1="717.42" x2="130.67" y2="718.62"/><line class="cls-1" x1="554.86" y1="473.71" x2="552.77" y2="474.93"/><line class="cls-1" x1="607.62" y1="443.27" x2="605.53" y2="444.47"/><line class="cls-1" x1="660.38" y1="412.81" x2="658.29" y2="414"/><line class="cls-1" x1="713.14" y1="382.34" x2="711.05" y2="383.54"/><line class="cls-1" x1="765.9" y1="351.88" x2="763.81" y2="353.08"/><line class="cls-1" x1="818.66" y1="321.42" x2="816.57" y2="322.61"/><line class="cls-1" x1="871.42" y1="290.95" x2="869.33" y2="292.15"/><line class="cls-1" x1="396.56" y1="504.17" x2="394.49" y2="505.37"/><line class="cls-1" x1="449.34" y1="473.71" x2="447.25" y2="474.91"/><line class="cls-1" x1="238.28" y1="595.57" x2="236.21" y2="596.76"/><line class="cls-1" x1="343.8" y1="534.64" x2="341.73" y2="535.84"/><line class="cls-1" x1="132.76" y1="656.49" x2="130.67" y2="657.69"/><line class="cls-1" x1="818.66" y1="260.49" x2="816.57" y2="261.69"/><line class="cls-1" x1="765.9" y1="290.95" x2="763.81" y2="292.15"/><line class="cls-1" x1="713.14" y1="321.42" x2="711.05" y2="322.61"/><line class="cls-1" x1="660.38" y1="351.88" x2="658.29" y2="353.08"/><line class="cls-1" x1="607.62" y1="382.34" x2="605.53" y2="383.54"/><line class="cls-1" x1="554.84" y1="412.81" x2="552.77" y2="414"/><line class="cls-1" x1="502.1" y1="443.25" x2="500.01" y2="444.47"/><line class="cls-1" x1="343.8" y1="473.71" x2="341.73" y2="474.91"/><line class="cls-1" x1="396.56" y1="443.25" x2="394.49" y2="444.44"/><line class="cls-1" x1="238.28" y1="534.64" x2="236.21" y2="535.84"/><line class="cls-1" x1="291.04" y1="504.17" x2="288.97" y2="505.37"/><line class="cls-1" x1="132.76" y1="595.57" x2="130.67" y2="596.76"/><line class="cls-1" x1="185.52" y1="565.1" x2="183.43" y2="566.32"/><line class="cls-1" x1="765.9" y1="230.02" x2="763.81" y2="231.22"/><line class="cls-1" x1="449.34" y1="412.78" x2="447.25" y2="413.98"/><line class="cls-1" x1="291.04" y1="443.25" x2="288.97" y2="444.44"/><line class="cls-1" x1="343.8" y1="412.78" x2="341.73" y2="413.98"/><line class="cls-1" x1="238.28" y1="473.71" x2="236.21" y2="474.91"/><line class="cls-1" x1="132.76" y1="534.64" x2="130.67" y2="535.86"/><line class="cls-1" x1="185.52" y1="504.17" x2="183.43" y2="505.4"/><line class="cls-1" x1="713.12" y1="199.56" x2="711.05" y2="200.76"/><line class="cls-1" x1="396.56" y1="382.32" x2="394.49" y2="383.52"/><line class="cls-1" x1="291.06" y1="382.34" x2="288.97" y2="383.54"/><line class="cls-1" x1="238.28" y1="412.81" x2="236.21" y2="414"/><line class="cls-1" x1="185.52" y1="443.25" x2="183.43" y2="444.47"/><line class="cls-1" x1="132.76" y1="473.71" x2="130.67" y2="474.93"/><line class="cls-1" x1="660.38" y1="169.1" x2="658.29" y2="170.32"/><line class="cls-1" x1="343.82" y1="351.88" x2="341.73" y2="353.08"/><line class="cls-1" x1="238.28" y1="351.88" x2="236.21" y2="353.08"/><line class="cls-1" x1="132.76" y1="412.78" x2="130.67" y2="414"/><line class="cls-1" x1="607.62" y1="138.63" x2="605.53" y2="139.85"/><line class="cls-1" x1="291.06" y1="321.42" x2="288.97" y2="322.61"/><line class="cls-1" x1="185.52" y1="321.39" x2="183.43" y2="322.61"/><line class="cls-1" x1="132.76" y1="351.86" x2="130.67" y2="353.08"/><line class="cls-1" x1="554.84" y1="108.17" x2="552.77" y2="109.37"/><line class="cls-1" x1="238.28" y1="290.95" x2="236.21" y2="292.13"/><line class="cls-1" x1="502.08" y1="77.71" x2="500.01" y2="78.9"/><line class="cls-1" x1="449.32" y1="108.17" x2="447.25" y2="109.37"/><line class="cls-1" x1="396.56" y1="138.63" x2="394.49" y2="139.83"/><line class="cls-1" x1="343.8" y1="169.1" x2="341.73" y2="170.29"/><line class="cls-1" x1="291.04" y1="199.56" x2="288.97" y2="200.76"/><line class="cls-1" x1="238.28" y1="230.02" x2="236.21" y2="231.22"/><line class="cls-1" x1="185.54" y1="260.49" x2="183.43" y2="261.71"/><line class="cls-1" x1="132.76" y1="290.95" x2="130.67" y2="292.17"/><polyline class="cls-1" points="552.77 46.05 554.86 47.24 555.54 47.64"/><polyline class="cls-1" points="605.53 76.51 607.6 77.71 608.3 78.11"/><polyline class="cls-1" points="658.29 106.97 660.38 108.17 661.06 108.57"/><polyline class="cls-1" points="711.05 137.44 713.14 138.63 713.82 139.03"/><polyline class="cls-1" points="763.81 167.9 765.9 169.1 766.58 169.5"/><polyline class="cls-1" points="816.57 198.36 818.66 199.56 819.34 199.96"/><polyline class="cls-1" points="869.33 228.83 871.42 230.03 872.1 230.42"/><line class="cls-1" x1="819.34" y1="321.81" x2="818.66" y2="321.42"/><line class="cls-1" x1="450.02" y1="108.57" x2="449.32" y2="108.17"/><line class="cls-1" x1="766.58" y1="291.35" x2="765.9" y2="290.95"/><line class="cls-1" x1="766.58" y1="352.26" x2="765.9" y2="351.88"/><line class="cls-1" x1="397.26" y1="139.03" x2="396.56" y2="138.63"/><line class="cls-1" x1="713.82" y1="321.79" x2="713.14" y2="321.42"/><line class="cls-1" x1="713.82" y1="382.72" x2="713.14" y2="382.34"/><line class="cls-1" x1="344.5" y1="169.5" x2="343.8" y2="169.1"/><line class="cls-1" x1="661.06" y1="352.26" x2="660.38" y2="351.88"/><line class="cls-1" x1="713.82" y1="443.65" x2="713.14" y2="443.27"/><line class="cls-1" x1="661.06" y1="413.18" x2="660.38" y2="412.81"/><line class="cls-1" x1="291.72" y1="199.96" x2="291.04" y2="199.56"/><line class="cls-1" x1="608.3" y1="382.72" x2="607.62" y2="382.34"/><line class="cls-1" x1="661.06" y1="474.11" x2="660.38" y2="473.71"/><line class="cls-1" x1="608.3" y1="443.65" x2="607.62" y2="443.27"/><line class="cls-1" x1="713.82" y1="504.57" x2="713.14" y2="504.17"/><line class="cls-1" x1="238.96" y1="230.42" x2="238.28" y2="230.02"/><line class="cls-1" x1="608.3" y1="504.57" x2="607.62" y2="504.17"/><line class="cls-1" x1="555.54" y1="474.11" x2="554.86" y2="473.71"/><line class="cls-1" x1="661.06" y1="535.04" x2="660.38" y2="534.64"/><line class="cls-1" x1="502.78" y1="443.65" x2="502.1" y2="443.25"/><line class="cls-1" x1="186.22" y1="260.89" x2="185.54" y2="260.49"/><line class="cls-1" x1="555.54" y1="535.04" x2="554.86" y2="534.64"/><line class="cls-1" x1="502.78" y1="504.57" x2="502.1" y2="504.17"/><line class="cls-1" x1="819.34" y1="748.26" x2="818.66" y2="747.88"/><line class="cls-1" x1="713.8" y1="687.33" x2="713.12" y2="686.96"/><line class="cls-1" x1="555.52" y1="595.97" x2="554.84" y2="595.57"/><line class="cls-1" x1="502.78" y1="565.5" x2="502.1" y2="565.1"/><line class="cls-1" x1="186.2" y1="443.65" x2="185.52" y2="443.25"/><line class="cls-1" x1="713.8" y1="748.26" x2="713.12" y2="747.88"/><line class="cls-1" x1="766.58" y1="778.72" x2="765.9" y2="778.35"/><line class="cls-1" x1="661.04" y1="717.8" x2="660.36" y2="717.42"/><line class="cls-1" x1="502.76" y1="626.43" x2="502.08" y2="626.03"/><line class="cls-1" x1="661.06" y1="778.72" x2="660.38" y2="778.33"/><line class="cls-1" x1="713.82" y1="809.19" x2="713.14" y2="808.79"/><line class="cls-1" x1="291.74" y1="626.43" x2="291.06" y2="626.03"/><line class="cls-1" x1="661.06" y1="839.65" x2="660.38" y2="839.25"/><line class="cls-1" x1="608.3" y1="809.19" x2="607.62" y2="808.79"/><line class="cls-1" x1="608.3" y1="870.12" x2="607.62" y2="869.72"/><line class="cls-1" x1="555.54" y1="900.58" x2="554.86" y2="900.18"/><line class="cls-1" x1="502.78" y1="931.04" x2="502.1" y2="930.64"/><path class="cls-3" d="M872.1,230.42l-2.77,1.6v-3.19l-50-28.87-2.77,1.6v-3.2l-50-28.86-2.77,1.59V167.9l-50-28.87-2.77,1.6v-3.19l-50-28.87-2.77,1.59V107l-50-28.87-2.77,1.6V76.51l-50-28.87-2.77,1.6V46.05l-50-28.87L500,18.77,450,47.64l-2.77,1.6-50,28.86-2.75,1.6-50,28.87-2.77,1.59-50,28.87-2.75,1.6L239,169.5l-2.75,1.59L186.2,200l-2.77,1.6-50,28.86-2.79,1.6-50,28.87-2.79,1.59V320.2L80,321.42l.7.39-2.79,1.6v57.71l2.09,1.2.68.4-2.77,1.59v57.74l2.09,1.2.68.4-2.77,1.59V503L80,504.17l.68.4-2.77,1.6v57.74L80,565.1l.68.4-2.77,1.6v57.73L80,626l.68.4L77.91,628v57.72L80,687l.68.37L77.91,689v57.71L80,747.88l.68.38,50,28.87,2.11,1.22.68.37,50,28.87,2.09,1.2.68.4,50,28.87,2.07,1.19.68.4,50,28.87,2.07,1.2.68.4,50,28.86,2.07,1.2.68.4,50,28.87,2.07,1.19.68.4,50,28.87,2.09,1.2.68.4,50,28.86,2.09,1.2,50.67-29.27v-2.39l2.09,1.2,50.67-29.27v-2.39l2.09,1.19,50.67-29.26V899l2.09,1.2,50.67-29.27v-2.39l2.09,1.2,50.67-29.25v-2.41l2.09,1.19L816.57,810v-2.42l2.09,1.22.68.38,50-28.87v-.77l2.09-1.2,50.67-29.27V259.29ZM183.43,259.27l2.11,1.22,50.67-29.27v-2.39l2.07,1.19L289,200.76v-2.4l2.07,1.2,50.69-29.27V167.9l2.07,1.2,50.69-29.27v-2.39l2.07,1.19,50.69-29.26V107l2.07,1.2L500,78.9V76.51l2.07,1.2.7.39,50,28.87,2.07,1.2.7.4,50,28.87,2.09,1.19.68.4,50,28.87,2.09,1.2.68.4,50,28.86,2.07,1.2.68.4,50,28.87L765.9,230l.68.4,50,28.87,2.09,1.2.68.4-2.77,1.59-50,28.87-2.77,1.6-50,28.84-2.77,1.6-50,28.87-2.77,1.59-50,28.87-2.77,1.59-50,28.87-2.75,1.6-50,28.87L500,445.24v-3.19l-50-28.87-2.77,1.6v-3.19l-50-28.87-2.75,1.59v-3.19l-50-28.86-2.77,1.59v-3.19l-50-28.87-2.77,1.6V320.2l-50-28.87-2.75,1.59v-3.16l-50-28.87-2.79,1.59Zm688,92.61.68.4-2.77,1.59v57.72l2.09,1.19.68.4-2.77,1.6v57.73l2.09,1.2.68.4-2.77,1.6v57.73l2.09,1.2.68.4-2.77,1.59v57.74l2.09,1.2.68.4-2.77,1.57v57.73l2.09,1.22.68.38-2.77,1.59V716.2l2.09,1.22.68.38-2.77,1.59-50,28.87-2.77,1.6-50,28.86-2.77,1.6-50,28.87-2.77,1.59-50,28.87-2.77,1.6-50,28.87-2.77,1.59-50,28.87-2.77,1.59-50,28.87-2.77,1.6v-3.19l-50-28.87-2.77,1.59V899l-50-28.86-2.75,1.59v-3.19l-50-28.87-2.77,1.6v-3.19l-50-28.87L289,810.78v-3.19l-50-28.87-2.75,1.6v-3.19l-50-28.87-2.79,1.62v-3.22l-50-28.86-2.79,1.62V289.73l2.09,1.22.7.4,50,28.85,2.09,1.19.68.4,50,28.89,2.07,1.2.68.38,50,28.86,2.09,1.22.68.38,50,28.87,2.07,1.19.68.4,50,28.87,2.07,1.2.68.4,50,28.86,2.09,1.2.68.4L500,503l2.09,1.19,50.67-29.24v-2.42l2.09,1.2,50.67-29.24v-2.42l2.09,1.22L658.29,414v-2.41l2.09,1.22,50.67-29.27v-2.42l2.09,1.22,50.67-29.26v-2.42l2.09,1.22,50.67-29.27v-2.39l2.09,1.2,50.67-29.27v-2.39l2.09,1.19.68.4-2.77,1.6v57.73Z"/><path class="cls-2" d="M869.33,292.94V718.61l-50.67,29.27-2.09-1.22v2.41L765.9,778.34l-2.09-1.22v2.42l-50.67,29.24-2.09-1.2V810l-50.67,29.24-2.09-1.19v2.39l-50.67,29.27-2.09-1.2v2.4l-50.67,29.26L552.77,899v2.39L502.1,930.64l-2.09-1.2V871.7l2.74-1.59-.68-.4-2.06-1.2V810.78l2.74-1.6-.68-.4-2.06-1.2V749.85l2.77-1.6-.68-.4L500,746.66V688.92l2.77-1.6-.68-.37L500,685.73V628l2.74-1.57,50-28.89,2.74-1.57,50-28.87V810.78l2.77-1.6,50-28.87,2.77-1.59,50-28.87,2.74-1.6,50-28.87,2.77-1.59-.68-.38-2.09,1.2v-2.42l52.76-86.74c.47-.75.91-1.48,1.34-2.23a0,0,0,0,0,0,0l.7-.4.71-.4-.68-.38-2.09-1.22V567.09l2.77-1.6-.68-.4-2.09-1.19V506.16l2.77-1.59-.68-.4-2.09-1.2V445.23l2.77-1.59-.68-.4-2.09-1.2-50-28.87-.68-.37-2.09-1.22V414l-50.67,29.26L711.05,442v2.42L660.38,473.7l-2.09-1.19v2.41l-50.67,29.25-2.09-1.2v2.42l-50.67,29.24-2.09-1.2v2.42L502.1,565.09,500,563.9V506.16l2.77-1.59,50-28.87,2.77-1.6,50-28.87,2.77-1.59,50-28.87,2.77-1.6,50-28.86,2.77-1.6,50-28.87,2.77-1.59,50-28.85,2.77-1.59Z"/><path class="cls-2" d="M817.91,627.23c-.42.75-.87,1.48-1.34,2.23V628Z"/><path class="cls-4" d="M500,503v60.93L450,535l-.68-.4-2.09-1.2-50-28.87-.68-.4L394.49,503l-50-28.87-.68-.4-2.07-1.2-50-28.86-.68-.4-2.07-1.2-50-28.87-.68-.37-2.07-1.22V414l-50.69,29.25-2.09-1.2v185.2l2.09-1.22.68.4,50,89.79v3.17l2.75-1.57,50,28.87v3.17l2.75-1.6,50,28.89v3.17l2.75-1.6,50,28.87v3.19l2.75-1.59-.68-.4-2.07-1.2V749.86l2.75-1.6-.68-.4-2.07-1.2V688.93l2.75-1.6-.68-.37-2.07-1.2V628l2.77-1.59-.68-.4-2.09-1.2L344.5,596l-.68-.4-2.09-1.2v2.39L291.06,626l-2.09-1.2V628l2.77-1.59,50,28.87v60.92l-50-28.86-.68-.4-2.09-1.2-50-28.87-.68-.4-2.07-1.19V597.56L239,596l-.68-.4-2.07-1.2V536.63L239,535l-.68-.4-2.07-1.2V475.71l2.75-1.6L289,503v3.19l2.75-1.6,50,28.87v3.19l2.75-1.59,50,28.87v3.19l2.75-1.6,50,28.87v3.19L450,596l50,28.86V929.45l-50-28.87-.68-.4-2.09-1.2-50-28.86-.68-.4-2.07-1.2-50-28.87-.68-.4-2.09-1.19-50-28.87-.68-.4-2.07-1.2-50-28.87-.68-.4-2.07-1.19-50-28.87-.68-.38-2.11-1.22-50-28.86-.68-.38-2.11-1.22V658.49l2.77-1.6-.68-.4-2.09-1.19V597.56l2.77-1.59-.68-.4-2.09-1.2V536.63l2.77-1.59-.68-.4-2.09-1.2V475.71l2.77-1.6-.68-.4-2.09-1.2V414.78l2.77-1.6-.68-.4-2.09-1.19V353.85l2.77-1.59-.68-.4-2.09-1.2V293l2.79-1.6,50,28.85v3.21l2.77-1.62,50,28.89v3.17l2.75-1.59,50,28.86v3.19l2.77-1.59,50,28.87v3.19l2.75-1.6,50,28.87v3.19l2.75-1.59,50,28.86v3.2l2.77-1.6Z"/><polygon class="cls-5" points="816.57 259.29 816.57 261.69 765.9 290.95 763.81 289.75 763.81 292.15 713.14 321.42 711.05 320.2 711.05 322.61 660.38 351.88 658.29 350.66 658.29 353.08 607.62 382.34 605.53 381.12 605.53 384.31 555.52 413.18 554.84 412.81 552.77 411.61 552.77 414 502.1 443.25 500.01 442.05 450.02 413.18 449.34 412.78 447.25 411.59 397.24 382.72 396.56 382.32 394.49 381.12 344.5 352.25 343.82 351.88 341.73 350.66 291.74 321.79 291.06 321.42 288.97 320.2 238.96 291.33 238.28 290.95 236.21 289.75 186.22 260.89 236.21 232.02 238.96 230.42 288.97 201.56 291.72 199.96 341.73 171.09 344.5 169.5 394.49 140.63 397.26 139.03 447.25 110.17 450.02 108.57 500.01 79.7 502.78 78.11 552.77 106.97 552.77 110.17 555.54 108.57 605.53 137.44 605.53 140.63 608.3 139.03 658.29 167.9 658.29 171.09 661.06 169.5 711.05 198.36 711.05 201.56 713.8 199.96 763.81 228.83 763.81 232.02 766.58 230.42 816.57 259.29"/><path class="cls-3" d="M766.58,413.18l-2.77,1.6-50,28.87-2.77,1.59-50,28.87-2.77,1.6-50,28.86-2.77,1.6-50,28.87-2.77,1.59-50,28.87L500,567.1v-3.19L450,535l-2.77,1.59v-3.19l-50-28.87-2.75,1.6V503l-50-28.87-2.75,1.6v-3.2l-50-28.86L289,445.24v-3.19l-50-28.87-2.75,1.6-50,28.87-2.77,1.59V503l2.09,1.19.68.4-2.77,1.6v57.74l2.09,1.19.68.4-2.77,1.6v57.71l2.09,1.22.68.4,50,89.79,2.07,1.2.68.4,50,28.87,2.07,1.17.68.4,50,28.89,2.07,1.17.68.4,50,28.87V624.83L344.5,596l-2.77,1.59-50,28.87,50,28.87,2.09,1.19.68.4-2.77,1.6v57.73l2.07,1.2-2.07,1.17v-2.37l-50-28.86L289,689v-3.19l-50-28.87-2.75,1.57v-186l2.07,1.2.68.4L289,503l2.07,1.19.68.4,50,28.87,2.07,1.2.68.4,50,28.87,2.07,1.19.68.4,50,28.87,2.09,1.2.68.4,50,28.86,2.07,1.2,50.69-29.27v-2.39l2.07,1.2,50.69-29.27v-2.39l2.09,1.19.68.4-2.77,1.6v57.73l2.09,1.2.68.4L605.53,628v57.74l2.09,1.2.68.4-2.77,1.57v57.73l2.09,1.2.68.4-2.77,1.6v57.73l2.09,1.2,50.67-29.27v-2.39l2.09,1.19,50.67-29.24v-2.39l2.07,1.19,50.69-29.26V716.2l52.76-86.74V442.05Zm-.68,121.46.68.4-2.77,1.59v57.74l2.09,1.2.68.4-2.77,1.59V655.3l2.09,1.19.68.38-2.77,1.59-50,28.87-2.75,1.6L661,717.8l-2.75,1.59V533.44l2.09,1.2,50.67-29.27V503l2.09,1.19,50.67-29.24v-2.42l2.09,1.2.68.4-2.77,1.6v57.73Zm52,92.56.71-.4c0-.25,0-.51,0-.77C818.43,626.43,818.19,626.8,817.93,627.2Z"/></svg>